<svg width="900" height="350" viewBox="0 0 900 350" xmlns="http://www.w3.org/2000/svg">
    <defs>
        <marker id="arrow" markerWidth="10" markerHeight="10" refX="9" refY="3" orient="auto" markerUnits="strokeWidth">
            <path d="M0,0 L0,6 L9,3 z" fill="#555" />
        </marker>
    </defs>

    <rect width="900" height="350" fill="#1e1e1e"/>

    <g id="group-regfile" transform="translate(190, 180)">
        <rect id="regfile-box" width="140" height="60" rx="4" fill="#2d2d30" stroke="#007acc" stroke-width="2"/>
        <text x="70" y="25" text-anchor="middle" font-weight="bold" fill="#007acc" font-family="sans-serif">Register File</text>
        <text x="70" y="45" text-anchor="middle" font-size="10" fill="#888">x0 - x31</text>
    </g>

    <path id="wire-wb-back" d="M 710 160 L 710 300 L 260 300 L 260 240"
          fill="none" stroke="#444" stroke-width="2" stroke-dasharray="5,5" marker-end="url(#arrow)"/>

    <g id="group-if" transform="translate(50, 50)">
        <rect id="stage-if" width="120" height="110" rx="4" fill="#252526" stroke="#555" stroke-width="2"/>
        <text x="60" y="20" text-anchor="middle" font-weight="bold" fill="#ddd">IF</text>
        <text id="txt-pc-if" x="60" y="45" text-anchor="middle" font-family="monospace" font-size="11" fill="#bbb">PC: --</text>
        <text id="txt-asm-if" x="60" y="75" text-anchor="middle" font-family="monospace" font-size="11" fill="#4ec9b0">nop</text>
    </g>

    <g id="group-id" transform="translate(200, 50)">
        <rect id="stage-id" width="120" height="110" rx="4" fill="#252526" stroke="#555" stroke-width="2"/>
        <text x="60" y="20" text-anchor="middle" font-weight="bold" fill="#ddd">ID</text>
        <text id="txt-pc-id" x="60" y="35" text-anchor="middle" font-family="monospace" font-size="10" fill="#666">x00</text>
        <text id="txt-asm-id" x="60" y="55" text-anchor="middle" font-family="monospace" font-size="11" fill="#4ec9b0">nop</text>
        <line x1="10" y1="65" x2="110" y2="65" stroke="#444" />
        <text id="txt-rs1-id" x="10" y="80" font-family="monospace" font-size="10" fill="#ccc">rs1: --</text>
        <text id="txt-rs2-id" x="10" y="92" font-family="monospace" font-size="10" fill="#ccc">rs2: --</text>
        <text id="txt-rd-id" x="10" y="104" font-family="monospace" font-size="10" fill="#ccc">-> rd: --</text>
    </g>

    <g id="group-ex" transform="translate(350, 50)">
        <rect id="stage-ex" width="120" height="110" rx="4" fill="#252526" stroke="#555" stroke-width="2"/>
        <text x="60" y="20" text-anchor="middle" font-weight="bold" fill="#ddd">EX</text>
        <text id="txt-pc-ex" x="60" y="35" text-anchor="middle" font-family="monospace" font-size="10" fill="#666">x00</text>
        <text id="txt-asm-ex" x="60" y="55" text-anchor="middle" font-family="monospace" font-size="11" fill="#4ec9b0">nop</text>
        <line x1="10" y1="65" x2="110" y2="65" stroke="#444" />
        <text id="txt-op-a" x="10" y="80" font-family="monospace" font-size="10" fill="#aaa">A: --</text>
        <text id="txt-op-b" x="10" y="92" font-family="monospace" font-size="10" fill="#aaa">B: --</text>
        <text id="txt-alu-ex" x="60" y="105" text-anchor="middle" font-family="monospace" font-size="11" font-weight="bold" fill="#fff">Res: 0x0</text>
    </g>

    <g id="group-mem" transform="translate(500, 50)">
        <rect id="stage-mem" width="120" height="110" rx="4" fill="#252526" stroke="#555" stroke-width="2"/>
        <text x="60" y="20" text-anchor="middle" font-weight="bold" fill="#ddd">MEM</text>
        <text id="txt-pc-mem" x="60" y="35" text-anchor="middle" font-family="monospace" font-size="10" fill="#666">x00</text>
        <text id="txt-asm-mem" x="60" y="55" text-anchor="middle" font-family="monospace" font-size="11" fill="#4ec9b0">nop</text>
        <line x1="10" y1="65" x2="110" y2="65" stroke="#444" />
        <text id="txt-mem-status" x="60" y="90" text-anchor="middle" font-family="monospace" font-size="11" fill="#888">Idle</text>
    </g>

    <g id="group-wb" transform="translate(650, 50)">
        <rect id="stage-wb" width="120" height="110" rx="4" fill="#252526" stroke="#555" stroke-width="2"/>
        <text x="60" y="20" text-anchor="middle" font-weight="bold" fill="#ddd">WB</text>
        <text id="txt-pc-wb" x="60" y="35" text-anchor="middle" font-family="monospace" font-size="10" fill="#666">x00</text>
        <text id="txt-asm-wb" x="60" y="55" text-anchor="middle" font-family="monospace" font-size="11" fill="#4ec9b0">nop</text>
        <line x1="10" y1="65" x2="110" y2="65" stroke="#444" />
        <text id="txt-wb-reg" x="60" y="90" text-anchor="middle" font-family="monospace" font-size="12" fill="#4ec9b0">x0 = 0x0</text>
    </g>

    <line x1="170" y1="105" x2="200" y2="105" stroke="#555" stroke-width="2" marker-end="url(#arrow)"/>
    <line x1="320" y1="105" x2="350" y2="105" stroke="#555" stroke-width="2" marker-end="url(#arrow)"/>
    <line x1="470" y1="105" x2="500" y2="105" stroke="#555" stroke-width="2" marker-end="url(#arrow)"/>
    <line x1="620" y1="105" x2="650" y2="105" stroke="#555" stroke-width="2" marker-end="url(#arrow)"/>
</svg>